# xmcd
# 
# Track frame offsets:
#	150
#	4601
#	24098
#	40335
#	52854
#	70931
#	85843
#	107706
#	125431
#	142073
#	176098
#	195097
#
# Disc length: 2664 seconds
#
# Revision: 1
# Processed by: cddbd v1.5.1PL0 Copyright (c) Steve Scherf et al.
# Submitted via: Audio-CD-Archiv 3.00.487
#
DISCID=920a660c
DTITLE=Joy Division - Black Souls
DYEAR=1900
DGENRE=blues
TTITLE0=Intro: Gregorian Chant
TTITLE1=Dead Souls (Live In London 02.08.79)
TTITLE2=Disorder (Live In London 02.08.79)
TTITLE3=Wilderness (Live In London 02.08.79)
TTITLE4=Autosuggestion (Live In London 02.08.79)
TTITLE5=Transmission (Live In London 02.08.79)
TTITLE6=Day Of The Lords (Live In London 02.08.79)
TTITLE7=She's Lost Control (Live In London 02.08.79)
TTITLE8=Shadowplay (Live In London 02.08.79)
TTITLE9=Atrocity Exhibition (Live In London 02.08.79)
TTITLE10=Insight (Live In London 02.08.79)
TTITLE11=Outro: Gregorian Chant
EXTD=
EXTT0=
EXTT1=
EXTT2=
EXTT3=
EXTT4=
EXTT5=
EXTT6=
EXTT7=
EXTT8=
EXTT9=
EXTT10=
EXTT11=
PLAYORDER=
